<svg viewBox="0 0 24 24" xmlns="http://www.w3.org/2000/svg" xmlns:xlink="http://www.w3.org/1999/xlink" width="24.000000" height="24.000000" fill="none">
	<rect id="menu 1" width="24.000000" height="24.000000" x="0.000000" y="0.000000" />
	<g id="Group">
		<g id="Layer 2">
			<g id="menu">
				<path id="Vector" d="M20.05 11L3.95 11C3.42533 11 3 11.4253 3 11.95L3 12.05C3 12.5747 3.42533 13 3.95 13L20.05 13C20.5747 13 21 12.5747 21 12.05L21 11.95C21 11.4253 20.5747 11 20.05 11Z" fill="rgb(26.5625,26.5625,26.5625)" fill-rule="evenodd" />
				<path id="Vector" d="M20.05 16L3.95 16C3.42533 16 3 16.4253 3 16.95L3 17.05C3 17.5747 3.42533 18 3.95 18L20.05 18C20.5747 18 21 17.5747 21 17.05L21 16.95C21 16.4253 20.5747 16 20.05 16Z" fill="rgb(26.5625,26.5625,26.5625)" fill-rule="evenodd" />
				<path id="Vector" d="M20.05 6L3.95 6C3.42533 6 3 6.42533 3 6.95L3 7.05C3 7.57467 3.42533 8 3.95 8L20.05 8C20.5747 8 21 7.57467 21 7.05L21 6.95C21 6.42533 20.5747 6 20.05 6Z" fill="rgb(26.5625,26.5625,26.5625)" fill-rule="evenodd" />
			</g>
		</g>
	</g>
</svg>
